<?xml version="1.0" encoding="UTF-8" standalone="no"?>
<svg width="245px" height="245px" viewBox="0 0 245 245" version="1.1" xmlns="http://www.w3.org/2000/svg" xmlns:xlink="http://www.w3.org/1999/xlink" xmlns:sketch="http://www.bohemiancoding.com/sketch/ns">
    <!-- Generator: Sketch 3.4.3 (16044) - http://www.bohemiancoding.com/sketch -->
    <title>QuickBooks Logo Mark</title>
    <desc>Created with Sketch.</desc>
    <defs></defs>
    <g id="Splash" stroke="none" stroke-width="1" fill="none" fill-rule="evenodd" sketch:type="MSPage">
        <g id="QuickBooks-Logo-Mark" sketch:type="MSLayerGroup">
            <circle id="Oval-2" fill="#28A038" sketch:type="MSShapeGroup" cx="122.5" cy="122.5" r="122.5"></circle>
            <path d="M84.3238636,74 C57.6306818,74 36,95.7061069 36,122.492366 C36,149.278626 57.6306818,170.984733 84.3238636,170.984733 L88.9261364,170.984733 L88.9261364,153.896947 L84.3238636,153.896947 C66.8352273,153.896947 53.0284091,139.580153 53.0284091,122.492366 C53.0284091,104.942748 67.2954545,91.0877863 84.3238636,91.0877863 L99.5113636,91.0877863 L99.5113636,195 L117,195 L117,74 C117,74 85.2443182,74 84.3238636,74 L84.3238636,74 Z" id="Shape" fill="#FFFFFF" sketch:type="MSShapeGroup"></path>
            <path d="M160.676136,172 C187.369318,172 209,150.293893 209,123.507634 C209,96.721374 187.369318,75.0152672 160.676136,75.0152672 L156.073864,75.0152672 L156.073864,92.1030534 L160.676136,92.1030534 C178.164773,92.1030534 191.971591,106.419847 191.971591,123.507634 C191.971591,141.057252 177.704545,154.912214 160.676136,154.912214 L145.488636,154.912214 L145.488636,51 L128,51 L128,172 L160.676136,172 L160.676136,172 Z" id="Shape" fill="#FFFFFF" sketch:type="MSShapeGroup"></path>
        </g>
    </g>
</svg>