<?xml version="1.0" encoding="UTF-8" standalone="no"?>
<svg width="245px" height="245px" viewBox="0 0 245 245" version="1.1" xmlns="http://www.w3.org/2000/svg" xmlns:xlink="http://www.w3.org/1999/xlink" xmlns:sketch="http://www.bohemiancoding.com/sketch/ns">
    <!-- Generator: Sketch 3.4.3 (16044) - http://www.bohemiancoding.com/sketch -->
    <title>Group</title>
    <desc>Created with Sketch.</desc>
    <defs></defs>
    <g id="Splash" stroke="none" stroke-width="1" fill="none" fill-rule="evenodd" sketch:type="MSPage">
        <g id="Group" sketch:type="MSLayerGroup">
            <path d="M122.67853,244.553593 C190.202443,244.553593 244.941849,189.814187 244.941849,122.290273 C244.941849,54.765944 190.202443,0.0265382003 122.67853,0.0265382003 C55.1542003,0.0265382003 0.414794567,54.765944 0.414794567,122.290273 C0.414794567,189.814187 55.1542003,244.553593 122.67853,244.553593" id="Fill-1" fill="#00B7E3" sketch:type="MSShapeGroup"></path>
            <path d="M58.9408854,121.937207 L79.8062334,101.019864 C80.4979737,100.314813 80.8839839,99.3814007 80.8839839,98.3918336 C80.8839839,96.3286757 79.2068362,94.6531919 77.1440942,94.6531919 C76.1391367,94.6531919 75.196573,95.0471053 74.4861146,95.7667148 C74.4844508,95.7700424 53.6394847,116.60253 53.6394847,116.60253 L32.7000959,95.7351019 C31.9921333,95.0371222 31.0549771,94.6531919 30.0608345,94.6531919 C27.9997564,94.6531919 26.3226087,96.3274278 26.3226087,98.3885059 C26.3226087,99.3942954 26.7235934,100.337691 27.4444508,101.048565 L48.3073031,121.907674 L27.4556817,142.798812 C26.7219295,143.520085 26.3226087,144.466392 26.3226087,145.475509 C26.3226087,147.537835 27.9997564,149.212071 30.0608345,149.212071 C31.0566409,149.212071 31.994629,148.825229 32.7000959,148.119762 L53.6074559,127.240688 L74.4353676,148.043226 C75.1736952,148.807343 76.1266579,149.214567 77.1440942,149.214567 C79.2047564,149.214567 80.8819041,147.537835 80.8819041,145.475509 C80.8819041,144.480535 80.4967258,143.545874 79.7945866,142.839576 L58.9408854,121.937207 Z" id="Fill-3" fill="#FFFFFF" sketch:type="MSShapeGroup"></path>
            <path d="M182.98164,121.93051 C182.98164,125.676639 186.027294,128.724373 189.778414,128.724373 C193.520384,128.724373 196.568117,125.676639 196.568117,121.93051 C196.568117,118.183549 193.520384,115.136648 189.778414,115.136648 C186.027294,115.136648 182.98164,118.183549 182.98164,121.93051" id="Fill-5" fill="#FFFFFF" sketch:type="MSShapeGroup"></path>
            <path d="M162.357964,121.934129 C162.357964,137.047593 174.654968,149.343348 189.771343,149.343348 C204.887302,149.343348 217.191377,137.047593 217.191377,121.934129 C217.191377,106.81817 204.887302,94.5186706 189.771343,94.5186706 C174.654968,94.5186706 162.357964,106.81817 162.357964,121.934129 M170.09647,121.934129 C170.09647,111.085496 178.921878,102.259256 189.771343,102.259256 C200.616233,102.259256 209.442472,111.085496 209.442472,121.934129 C209.442472,132.779851 200.616233,141.603178 189.771343,141.603178 C178.921878,141.603178 170.09647,132.779851 170.09647,121.934129" id="Fill-7" fill="#FFFFFF" sketch:type="MSShapeGroup"></path>
            <path d="M160.41219,94.9879975 L159.262063,94.9846698 C155.809185,94.9846698 152.479015,96.0736511 149.697912,98.2170891 C149.33062,96.5395255 147.831503,95.278337 146.046205,95.278337 C143.990951,95.278337 142.343752,96.9247037 142.338761,98.984118 C142.338761,98.9911893 142.351239,145.155595 142.351239,145.155595 C142.356647,147.21085 144.033795,148.882174 146.089881,148.882174 C148.146384,148.882174 149.822284,147.21085 149.827691,145.150188 C149.827691,145.142284 149.830187,116.760969 149.830187,116.760969 C149.830187,107.298312 150.694966,103.477726 158.799932,102.464865 C159.549907,102.37169 160.364355,102.386249 160.367683,102.386249 C162.585993,102.310128 164.161647,100.785638 164.161647,98.7262233 C164.161647,96.6647292 162.479092,94.9879975 160.41219,94.9879975" id="Fill-9" fill="#FFFFFF" sketch:type="MSShapeGroup"></path>
            <path d="M134.758818,116.714963 C133.148224,109.087519 128.972825,102.82234 122.61364,98.7991825 C113.319031,92.8979686 101.044905,93.2240806 92.0664244,99.6086392 C84.7434618,104.818113 80.5160679,113.341118 80.5160679,122.12077 C80.5160679,124.322026 80.7814499,126.543665 81.3338438,128.730778 C84.0991409,139.609361 93.4507368,147.84369 104.600525,149.209284 C107.908649,149.609437 111.128589,149.41768 114.463334,148.553317 C117.328878,147.856585 120.101662,146.693979 122.656484,145.057179 C125.308224,143.352578 127.523207,141.104734 129.669973,138.413894 C129.712401,138.364395 129.756908,138.320719 129.799336,138.267892 C131.28847,136.421449 131.012689,133.795498 129.376306,132.541797 C127.996153,131.484013 125.678428,131.055159 123.85611,133.389938 C123.464277,133.948571 123.027104,134.521763 122.545423,135.096619 C121.095805,136.698478 119.297613,138.250422 117.142112,139.454624 C114.400109,140.919632 111.274591,141.757374 107.953156,141.776508 C97.0787334,141.654632 91.2602954,134.063792 89.1900662,128.645507 C88.8285976,127.635142 88.5499049,126.584845 88.355236,125.505014 C88.3302784,125.302442 88.3111443,125.107357 88.303657,124.928495 C90.5527487,124.928495 127.325626,124.920592 127.325626,124.920592 C132.675694,124.809531 135.554548,121.033452 134.758818,116.714963 L134.758818,116.714963 Z M88.6285212,117.42043 C88.6285212,117.318936 88.6360085,117.211619 88.641416,117.106797 C90.8123073,108.52639 98.5824261,102.177604 107.836272,102.177604 C117.202426,102.177604 125.04409,108.68279 127.104752,117.42043 L88.6285212,117.42043 Z" id="Fill-11" fill="#FFFFFF" sketch:type="MSShapeGroup"></path>
        </g>
    </g>
</svg>