<?xml version="1.0" encoding="UTF-8" standalone="no"?>
<svg width="83px" height="83px" viewBox="0 0 83 83" version="1.1" xmlns="http://www.w3.org/2000/svg" xmlns:xlink="http://www.w3.org/1999/xlink" xmlns:sketch="http://www.bohemiancoding.com/sketch/ns">
    <!-- Generator: Sketch 3.4.3 (16044) - http://www.bohemiancoding.com/sketch -->
    <title>Oval 4 + Path 3 + Path 4 + C</title>
    <desc>Created with Sketch.</desc>
    <defs>
        <linearGradient x1="50%" y1="100%" x2="50%" y2="5.25287003%" id="linearGradient-1">
            <stop stop-color="#4773A7" offset="0%"></stop>
            <stop stop-color="#2779D9" stop-opacity="0.368602808" offset="100%"></stop>
        </linearGradient>
        <circle id="path-2" cx="39.8061224" cy="39.8061224" r="39.8061224"></circle>
        <linearGradient x1="50%" y1="6.53502288%" x2="50%" y2="98.0833798%" id="linearGradient-4">
            <stop stop-color="#B4D3F6" stop-opacity="0" offset="0%"></stop>
            <stop stop-color="#2779D9" stop-opacity="0.202813632" offset="100%"></stop>
        </linearGradient>
        <linearGradient x1="50%" y1="5.25287003%" x2="50%" y2="100%" id="linearGradient-5">
            <stop stop-color="#B4D3F6" offset="0%"></stop>
            <stop stop-color="#2779D9" offset="100%"></stop>
        </linearGradient>
        <linearGradient x1="50%" y1="0%" x2="50%" y2="130.15286%" id="linearGradient-6">
            <stop stop-color="#FFE303" offset="0%"></stop>
            <stop stop-color="#FF42A5" offset="99.344308%"></stop>
        </linearGradient>
        <linearGradient x1="50%" y1="72.8007913%" x2="50%" y2="5.51345485%" id="linearGradient-7">
            <stop stop-color="#E4F1FF" offset="0%"></stop>
            <stop stop-color="#FFFFFF" stop-opacity="0" offset="100%"></stop>
        </linearGradient>
        <linearGradient x1="51.8262841%" y1="4.54269935%" x2="45.9287446%" y2="32.9584231%" id="linearGradient-8">
            <stop stop-color="#FFFFFF" offset="0%"></stop>
            <stop stop-color="#FFFFFF" stop-opacity="0" offset="100%"></stop>
        </linearGradient>
    </defs>
    <g id="Homepage" stroke="none" stroke-width="1" fill="none" fill-rule="evenodd" sketch:type="MSPage">
        <g sketch:type="MSArtboardGroup" transform="translate(-135.000000, -52.000000)" id="logo">
            <g sketch:type="MSLayerGroup" transform="translate(135.000000, 52.000000)">
                <g id="Oval-4-+-Path-3-+-Path-4-+-C">
                    <g id="Oval-4-+-Path-3-+-Path-4">
                        <circle id="Oval-4" opacity="0.0942047575" fill="url(#linearGradient-1)" sketch:type="MSShapeGroup" cx="41.5" cy="41.5" r="41.5"></circle>
                        <g id="Path-3-+-Path-4" transform="translate(1.693878, 1.693878)">
                            <mask id="mask-3" sketch:name="Mask" fill="white">
                                <use xlink:href="#path-2"></use>
                            </mask>
                            <use id="Mask" fill="#FFFFFF" sketch:type="MSShapeGroup" xlink:href="#path-2"></use>
                            <g mask="url(#mask-3)" sketch:type="MSShapeGroup">
                                <g transform="translate(-82.153061, -37.265306)">
                                    <path d="M226.132653,80.074063 C226.132653,81.4546503 226.132653,34.8207419 226.132653,0 C213.320452,1.23708126e-15 213.854293,58.4988463 190.365257,58.4988463 C166.876221,58.4988463 163.139329,6.26773353 150.860969,6.26773353 C138.58261,6.26773353 139.650293,34.8207419 131.642667,34.8207419 C123.635041,34.8207419 123.635041,11.8390522 111.356682,11.8390522 C99.0783218,11.8390522 95.3414297,48.7490386 83.5969116,48.7490386 C71.8523936,48.7490386 68.6493433,25.0709341 56.3709835,25.0709341 C44.0926238,25.0709341 41.4234151,69.5912642 25.4081633,69.5912642 C25.5929001,73.2014754 25.4081633,80.074063 25.4081633,80.074063 L39.829384,78.9942114" id="Path-4" fill="url(#linearGradient-4)"></path>
                                    <path d="M200.72449,106.277154 C165.006598,106.277154 171.043425,66.6622771 150.4176,66.6622771 C129.791775,66.6622771 126.773362,109.672715 92.564677,109.672715 C58.355992,109.672715 52.8222342,50.8163265 35.2148228,50.8163265 C17.6074114,50.8163265 15.5951358,103.44752 1.99982059e-16,103.44752 L1.99982044e-16,122.123107 L200.72449,122.123104 L200.72449,106.277154 Z" id="Path-3" fill="url(#linearGradient-5)"></path>
                                    <path d="M260.010204,106.277154 C224.292312,106.277154 230.329139,66.6622771 209.703314,66.6622771 C189.07749,66.6622771 186.059076,109.672715 151.850391,109.672715 C117.641706,109.672715 112.107948,50.8163265 94.5005371,50.8163265 C76.8931257,50.8163265 74.8808501,103.44752 59.2857143,103.44752 L59.2857143,122.123107 L260.010204,122.123104 L260.010204,106.277154 Z" id="Path-3" fill="url(#linearGradient-5)"></path>
                                    <path d="M200.72449,122.426069 C200.72449,123.573105 200.72449,84.8281526 200.72449,55.8979592 C187.912288,55.8979592 188.44613,104.500684 164.957094,104.500684 C141.468058,104.500684 137.731166,61.105394 125.452806,61.105394 C113.174446,61.105394 114.24213,84.8281526 106.234504,84.8281526 C98.226878,84.8281526 98.226878,65.734225 85.9485182,65.734225 C73.6701585,65.734225 69.9332664,96.40023 58.1887484,96.40023 C46.4442304,96.40023 43.24118,76.7276985 30.9628202,76.7276985 C18.6844605,76.7276985 16.0152518,113.716622 0,113.716622 C0.184736806,116.716102 1.16859029e-08,122.426069 1.16859029e-08,122.426069 L14.4212208,121.528893" id="Path-4" fill="url(#linearGradient-6)"></path>
                                    <ellipse id="Oval-2" fill="url(#linearGradient-7)" cx="123.653061" cy="79.6122449" rx="39.8061224" ry="39.8061224"></ellipse>
                                    <ellipse id="Oval-2" fill="url(#linearGradient-8)" cx="123.229592" cy="74.9540816" rx="40.2295918" ry="40.2295918"></ellipse>
                                </g>
                            </g>
                        </g>
                    </g>
                    <path d="M57.4711972,51.4172665 L65.5959006,59.6219127 C59.1502703,66.737952 51.5537487,70.2959184 42.8061076,70.2959184 C34.0584666,70.2959184 26.854635,67.5876156 21.1943967,62.170929 C15.5341583,56.7542423 12.7040816,49.9171055 12.7040816,41.6593135 C12.7040816,33.4015215 15.5883225,26.5112808 21.3568907,20.9883846 C27.125459,15.4654883 34.1803392,12.7040816 42.521743,12.7040816 C51.8381161,12.7040816 59.6377533,16.182392 65.9208887,23.1391171 L58.0399264,31.9013605 C54.0317194,27.0157216 49.0486178,24.5729387 43.0904722,24.5729387 C38.3239558,24.5729387 34.2481037,26.099678 30.8627937,29.1532024 C27.4774837,32.2067267 25.7848541,36.3222848 25.7848541,41.5 C25.7848541,46.6777152 27.3826964,50.8331013 30.578429,53.9662828 C33.7741617,57.0994643 37.6468982,58.6660316 42.1967549,58.6660316 C48.4257253,58.6660316 53.5171551,56.2498007 57.4711972,51.4172665 Z" id="C" fill="#FFFFFF" sketch:type="MSShapeGroup"></path>
                </g>
            </g>
        </g>
    </g>
</svg>